<svg width="1024" height="1024" viewBox="0 0 1024 1024" fill="none" xmlns="http://www.w3.org/2000/svg">
  <path d="M334 662C334 629.967 359.967 604 392 604H632C664.033 604 690 629.967 690 662V680C690 693.255 679.255 704 666 704H358C344.745 704 334 693.255 334 680V662Z" fill="#B58A2E"/>
  <path d="M390 346C390 319.49 411.49 298 438 298H512V604H446C415.072 604 390 578.928 390 548V346Z" fill="#1D4669"/>
  <path d="M634 346C634 319.49 612.51 298 586 298H512V604H578C608.928 604 634 578.928 634 548V346Z" fill="#43698B"/>
  <path d="M512 298V604" stroke="#F6F8FB" stroke-width="18" stroke-linecap="round"/>
  <path d="M444 394H478" stroke="#F6F8FB" stroke-width="12" stroke-linecap="round" opacity="0.86"/>
  <path d="M444 448H478" stroke="#F6F8FB" stroke-width="12" stroke-linecap="round" opacity="0.62"/>
  <path d="M546 394H580" stroke="#F6F8FB" stroke-width="12" stroke-linecap="round" opacity="0.86"/>
  <path d="M546 448H580" stroke="#F6F8FB" stroke-width="12" stroke-linecap="round" opacity="0.62"/>
  <path d="M512 238C618.039 238 704 323.961 704 430" stroke="#B58A2E" stroke-width="24" stroke-linecap="round"/>
  <path d="M512 238C405.961 238 320 323.961 320 430" stroke="#B58A2E" stroke-width="24" stroke-linecap="round"/>
  <path d="M364 750H660" stroke="#B58A2E" stroke-width="18" stroke-linecap="round"/>
</svg>
