<svg width="1024" height="1024" viewBox="0 0 1024 1024" fill="none" xmlns="http://www.w3.org/2000/svg">
  <rect width="1024" height="1024" rx="232" fill="#1D4669"/>
  <rect x="76" y="76" width="872" height="872" rx="204" fill="url(#panelGlow)"/>
  <circle cx="512" cy="392" r="190" fill="#F6F8FB" fill-opacity="0.06"/>
  <path d="M320 668C320 635.967 345.967 610 378 610H646C678.033 610 704 635.967 704 668V686C704 699.255 693.255 710 680 710H344C330.745 710 320 699.255 320 686V668Z" fill="#B58A2E"/>
  <path d="M368 334C368 307.49 389.49 286 416 286H512V610H424C393.072 610 368 584.928 368 554V334Z" fill="#F8FAFD"/>
  <path d="M656 334C656 307.49 634.51 286 608 286H512V610H600C630.928 610 656 584.928 656 554V334Z" fill="#E7EEF6"/>
  <path d="M512 286V610" stroke="#B58A2E" stroke-width="18" stroke-linecap="round"/>
  <path d="M444 390H480" stroke="#8AA0B6" stroke-width="12" stroke-linecap="round"/>
  <path d="M444 446H480" stroke="#8AA0B6" stroke-width="12" stroke-linecap="round" opacity="0.7"/>
  <path d="M544 390H580" stroke="#8AA0B6" stroke-width="12" stroke-linecap="round"/>
  <path d="M544 446H580" stroke="#8AA0B6" stroke-width="12" stroke-linecap="round" opacity="0.7"/>
  <path d="M350 756H674" stroke="#B58A2E" stroke-width="20" stroke-linecap="round"/>
  <path d="M410 804H614" stroke="#D9E2EC" stroke-width="12" stroke-linecap="round" opacity="0.92"/>
  <defs>
    <linearGradient id="panelGlow" x1="192" y1="112" x2="834" y2="934" gradientUnits="userSpaceOnUse">
      <stop stop-color="#274E72"/>
      <stop offset="1" stop-color="#214A70"/>
    </linearGradient>
  </defs>
</svg>
